# File produced by Open Asset Import Library (http://www.assimp.sf.net)
# (assimp v3.2.202087883)

mtllib model_normalized.mtl

# 94 vertex positions
v 0.024275 -0.097159 -0.006275
v -0.023879 -0.095246 -0.008769
v 0.024275 -0.095246 -0.008769
v -0.023879 -0.097159 -0.006275
v 0.024275 -0.092753 -0.010682
v 0.024275 -0.099197 -0.046770
v 0.024275 -0.098362 -0.003372
v -0.023879 -0.099197 -0.046770
v -0.023879 -0.092753 -0.010682
v -0.023879 -0.098362 -0.003372
v 0.024275 -0.089849 -0.011885
v 0.024275 -0.098772 -0.000256
v -0.023879 -0.089849 -0.011885
v -0.023879 -0.098772 -0.000256
v 0.024275 -0.086733 -0.048410
v 0.024275 -0.099197 0.046258
v -0.023879 -0.086733 -0.048410
v -0.023879 -0.099197 0.046258
v 0.024275 -0.086733 -0.012295
v 0.024275 -0.098362 0.002859
v 0.024275 -0.110811 0.041447
v -0.023879 -0.086733 -0.012295
v -0.023879 -0.098362 0.002859
v -0.023879 -0.110811 0.041447
v 0.024275 -0.083618 -0.011885
v 0.006764 0.274424 -0.048410
v 0.024275 -0.097159 0.005763
v 0.024275 -0.110811 -0.041959
v -0.023879 -0.083618 -0.011885
v -0.023879 -0.097159 0.005763
v -0.023879 -0.110811 -0.041959
v 0.024275 -0.080714 -0.010682
v 0.024275 0.274424 -0.048410
v -0.006369 0.250347 -0.048410
v 0.024275 -0.095246 0.008257
v -0.023879 -0.120783 0.033794
v 0.024275 -0.120783 0.033794
v -0.023879 -0.080714 -0.010682
v -0.023879 -0.095246 0.008257
v 0.024275 -0.086733 0.047898
v 0.024275 -0.078221 -0.008769
v 0.024275 -0.075105 -0.003372
v 0.011142 0.274424 0.047898
v -0.006369 0.274424 -0.048410
v -0.023879 0.250347 -0.048410
v 0.024275 -0.092753 0.010169
v 0.024275 -0.120783 -0.034306
v -0.023879 -0.078221 -0.008769
v -0.023879 -0.092753 0.010169
v -0.023879 -0.086733 0.047898
v 0.024275 -0.086733 0.011782
v -0.023879 -0.120783 -0.034306
v 0.024275 -0.076308 -0.006275
v 0.024275 -0.062656 0.047898
v 0.024275 0.274424 0.047898
v -0.010746 0.274424 0.047898
v 0.000198 0.250347 -0.192874
v -0.023879 -0.075105 -0.003372
v 0.024275 -0.089849 0.011372
v 0.024275 -0.128436 0.023821
v -0.023879 -0.076308 -0.006275
v -0.023879 -0.089849 0.011372
v -0.023879 -0.086733 0.011782
v 0.024275 -0.083618 0.011372
v -0.023879 -0.128436 0.023821
v 0.024275 -0.074695 -0.000256
v -0.023879 0.274424 0.047898
v -0.011841 0.780045 0.071975
v -0.010746 0.250347 0.047898
v -0.023879 0.274424 -0.048410
v 0.011142 0.250347 0.047898
v -0.023879 -0.074695 -0.000256
v 0.024275 -0.128436 -0.024333
v -0.023879 -0.128436 -0.024333
v -0.023879 -0.083618 0.011372
v 0.024275 -0.075105 0.002859
v 0.024275 -0.080714 0.010169
v -0.011841 0.250347 0.071975
v -0.011841 0.828199 0.071975
v 0.012237 0.250347 0.071975
v -0.023879 -0.075105 0.002859
v 0.024275 -0.133246 0.012207
v -0.023879 -0.080714 0.010169
v 0.024275 -0.076308 0.005763
v 0.024275 -0.078221 0.008257
v -0.023879 -0.133246 0.012207
v 0.000198 0.828199 -0.192874
v 0.024275 -0.133246 -0.012719
v -0.023879 -0.133246 -0.012719
v -0.023879 -0.078221 0.008257
v -0.023879 -0.076308 0.005763
v 0.012237 0.828199 0.071975
v 0.024275 -0.134888 -0.000256
v -0.023879 -0.134888 -0.000256

# 26 UV coordinates
vt 0 0 0
vt 0.111111 0.028017 0
vt 0.106481 0.046554 0
vt 0.106481 0.028017 0
vt 0.111111 0.00021 0
vt 0.009259 0.051189 0
vt 0.111111 0.046554 0
vt 0.046296 0.002525 0
vt 0.027778 0.005892 0
vt 0 0.00463 0
vt 0.111111 0.051189 0
vt 0.046296 0.006734 0
vt 0 0.051189 0
vt 0.111111 -0.050768 0
vt 0.111111 -0.046134 0
vt -0.111111 0.006944 0
vt 0 0.006944 0
vt -0.009259 0.006944 0
vt 0.050926 0.002315 0
vt 0.050926 0.006944 0
vt 0 0.00021 0
vt -0.111111 0.002315 0
vt -0.050926 0.002315 0
vt -0.050926 0.006944 0
vt 0 -0.050768 0
vt 0 0.002315 0

# 34 vertex normals
vn 0 -0.021997 -0.0127
vn 0 -0.0179605 -0.0179605
vn 0 -0.0127 -0.021997
vn -0.0254 0 0
vn 0 -0.0245345 -0.006574
vn 0.0254 0 0
vn 0 -0.006574 -0.0245345
vn 0 -0.0254 0
vn -0 0 -0.0254
vn 0 0.00166124 0.0253456
vn 0 0.006574 0.0245345
vn 0 -0.0245345 0.006574
vn 0 0 0.0254
vn -0 0.0127 -0.021997
vn -0 0.006574 -0.0245345
vn 0 0.0127 0.021997
vn 0 -0.021997 0.0127
vn -0 0.0179605 -0.0179605
vn -0 0.00166124 -0.0253456
vn 0 0.0254 0
vn 0 -0.0179605 0.0179605
vn 0 0.0179605 0.0179605
vn 0.0253738 0 0.00115336
vn 0 -0.0127 0.021997
vn -0 0.021997 -0.0127
vn -0 0.0245345 -0.006574
vn 0 -0.006574 0.0245345
vn 0 0.021997 0.0127
vn -0.0253738 0 0.00115336
vn 0 0.0245345 0.006574
vn 0 -0.00166124 -0.0253456
vn 0 -0.00166124 0.0253456
vn -0.0253738 0 -0.00115336
vn 0.0253738 -0 -0.00115336

# Mesh 'mesh1_mesh1-geometry' with 194 faces
g mesh1_mesh1-geometry
usemtl material_0_24
f  1/1/1 2/1/2 3/1/2
f  2/1/2 1/1/1 4/1/1
f  2/1/2 5/1/3 3/1/2
f  1/1/4 3/1/4 6/1/4
f  7/1/5 4/1/1 1/1/1
f  8/1/6 2/1/6 4/1/6
f  5/1/3 2/1/2 9/1/3
f  3/1/4 5/1/4 6/1/4
f  7/1/4 1/1/4 6/1/4
f  4/1/1 7/1/5 10/1/5
f  8/1/6 9/1/6 2/1/6
f  8/1/6 4/1/6 10/1/6
f  9/1/3 11/1/7 5/1/3
f  5/1/4 11/1/4 6/1/4
f  12/1/4 7/1/4 6/1/4
f  12/1/8 10/1/5 7/1/5
f  8/1/6 13/1/6 9/1/6
f  8/1/6 10/1/6 14/1/6
f  11/1/7 9/1/3 13/1/7
f  6/1/4 11/1/4 15/1/4
f  16/1/4 12/1/4 6/1/4
f  10/1/5 12/1/8 14/1/8
f  17/1/6 13/1/6 8/1/6
f  8/1/6 14/1/6 18/1/6
f  13/1/7 19/1/9 11/1/7
f  11/1/4 19/1/4 15/1/4
f  17/1/10 6/1/11 15/1/10
f  12/1/4 16/1/4 20/1/4
f  21/1/4 16/1/4 6/1/4
f  20/1/12 14/1/8 12/1/8
f  17/1/6 22/1/6 13/1/6
f  6/1/11 17/1/10 8/1/11
f  23/1/6 18/1/6 14/1/6
f  8/1/6 18/1/6 24/1/6
f  19/1/9 13/1/7 22/1/9
f  19/1/4 25/1/4 15/1/4
f  15/1/10 26/1/13 17/1/10
f  20/1/4 16/1/4 27/1/4
f  24/1/14 16/1/15 21/1/14
f  28/1/4 21/1/4 6/1/4
f  14/1/8 20/1/12 23/1/12
f  17/1/6 29/1/6 22/1/6
f  8/1/11 28/1/16 6/1/11
f  30/1/6 18/1/6 23/1/6
f  16/1/15 24/1/14 18/1/15
f  8/1/6 24/1/6 31/1/6
f  22/1/9 25/1/15 19/1/9
f  25/1/4 32/1/4 15/1/4
f  26/1/13 15/1/10 33/1/13
f  17/1/10 26/1/13 34/1/13
f  27/1/4 16/1/4 35/1/4
f  27/1/17 23/1/12 20/1/12
f  21/1/14 36/1/18 24/1/14
f  37/1/4 21/1/4 28/1/4
f  17/1/6 38/1/6 29/1/6
f  25/1/15 22/1/9 29/1/15
f  28/1/16 8/1/11 31/1/16
f  39/1/6 18/1/6 30/1/6
f  23/1/12 27/1/17 30/1/17
f  18/1/15 40/1/19 16/1/15
f  31/1/6 24/1/6 36/1/6
f  32/1/4 41/1/4 15/1/4
f  29/1/15 32/1/14 25/1/15
f  15/1/4 42/1/4 33/1/4
f  43/1/20 33/1/20 26/1/20
f  26/1/8 33/1/8 43/1/8
f  34/1/13 26/1/13 44/1/13
f  17/1/10 34/1/13 45/1/13
f  35/1/4 16/1/4 46/1/4
f  35/1/21 30/1/17 27/1/17
f  36/1/18 21/1/14 37/1/18
f  47/1/4 37/1/4 28/1/4
f  17/1/6 48/1/6 38/1/6
f  32/1/14 29/1/15 38/1/14
f  31/1/16 47/1/22 28/1/16
f  49/1/6 18/1/6 39/1/6
f  30/1/17 35/1/21 39/1/21
f  40/1/19 18/1/15 50/1/19
f  16/1/4 40/1/4 51/1/4
f  31/1/6 36/1/6 52/1/6
f  41/1/4 53/1/4 15/1/4
f  38/1/14 41/1/18 32/1/14
f  42/1/4 54/1/4 33/1/4
f  53/1/4 42/1/4 15/1/4
f  33/1/20 43/1/20 55/1/20
f  55/1/8 43/1/8 33/1/8
f  26/1/20 56/1/20 43/1/20
f  43/1/8 56/1/8 26/1/8
f  56/1/20 26/1/20 44/1/20
f  44/1/8 26/1/8 56/1/8
f  44/1/23 56/1/23 34/1/23
f  34/1/13 44/1/13 45/1/13
f  34/1/23 57/1/23 44/1/23
f  45/1/6 58/1/6 17/1/6
f  46/1/4 16/1/4 59/1/4
f  49/1/24 35/1/21 46/1/24
f  60/1/25 36/1/18 37/1/18
f  60/1/4 37/1/4 47/1/4
f  17/1/6 61/1/6 48/1/6
f  41/1/18 38/1/14 48/1/18
f  47/1/22 31/1/16 52/1/22
f  62/1/6 18/1/6 49/1/6
f  35/1/21 49/1/24 39/1/21
f  63/1/6 50/1/6 18/1/6
f  50/1/19 54/1/9 40/1/19
f  51/1/4 40/1/4 64/1/4
f  59/1/4 16/1/4 51/1/4
f  52/1/6 36/1/6 65/1/6
f  41/1/18 61/1/25 53/1/25
f  55/1/4 33/1/4 54/1/4
f  66/1/4 54/1/4 42/1/4
f  53/1/25 58/1/26 42/1/26
f  55/1/9 50/1/19 43/1/9
f  43/1/9 50/1/19 56/1/9
f  56/1/8 67/1/8 44/1/8
f  44/1/23 68/1/23 56/1/23
f  69/1/23 34/1/23 56/1/23
f  70/1/13 45/1/13 44/1/13
f  44/1/23 57/1/23 68/1/23
f  57/1/20 34/1/20 71/1/20
f  58/1/6 45/1/6 72/1/6
f  17/1/6 58/1/6 61/1/6
f  62/1/27 46/1/24 59/1/27
f  46/1/24 62/1/27 49/1/24
f  36/1/18 60/1/25 65/1/25
f  73/1/4 60/1/4 47/1/4
f  61/1/25 41/1/18 48/1/18
f  74/1/28 47/1/22 52/1/22
f  63/1/6 18/1/6 62/1/6
f  75/1/6 50/1/6 63/1/6
f  54/1/9 50/1/19 55/1/9
f  40/1/4 54/1/4 76/1/4
f  64/1/4 40/1/4 77/1/4
f  75/1/11 51/1/13 64/1/11
f  63/1/13 59/1/27 51/1/13
f  52/1/6 65/1/6 74/1/6
f  58/1/26 53/1/25 61/1/25
f  66/1/4 76/1/4 54/1/4
f  42/1/26 72/1/20 66/1/20
f  72/1/20 42/1/26 58/1/26
f  56/1/9 50/1/19 67/1/9
f  70/1/8 44/1/8 67/1/8
f  78/1/23 56/1/23 68/1/23
f  69/1/20 71/1/20 34/1/20
f  69/1/23 56/1/23 78/1/23
f  70/1/6 50/1/6 45/1/6
f  68/1/23 57/1/23 79/1/23
f  71/1/29 80/1/29 57/1/29
f  45/1/6 81/1/6 72/1/6
f  59/1/27 63/1/13 62/1/27
f  82/1/26 65/1/25 60/1/25
f  82/1/4 60/1/4 73/1/4
f  47/1/22 74/1/28 73/1/28
f  83/1/6 50/1/6 75/1/6
f  51/1/13 75/1/11 63/1/13
f  84/1/4 40/1/4 76/1/4
f  77/1/4 40/1/4 85/1/4
f  83/1/16 64/1/11 77/1/16
f  64/1/11 83/1/16 75/1/11
f  74/1/6 65/1/6 86/1/6
f  66/1/20 81/1/30 76/1/30
f  81/1/30 66/1/20 72/1/20
f  50/1/6 70/1/6 67/1/6
f  68/1/9 79/1/9 78/1/9
f  80/1/20 71/1/20 69/1/20
f  78/1/20 80/1/20 69/1/20
f  45/1/6 50/1/6 81/1/6
f  87/1/23 79/1/23 57/1/23
f  57/1/29 80/1/29 87/1/29
f  65/1/25 82/1/26 86/1/26
f  88/1/4 82/1/4 73/1/4
f  89/1/30 73/1/28 74/1/28
f  90/1/6 50/1/6 83/1/6
f  85/1/4 40/1/4 84/1/4
f  76/1/30 91/1/28 84/1/28
f  90/1/22 77/1/16 85/1/22
f  77/1/16 90/1/22 83/1/16
f  74/1/6 86/1/6 89/1/6
f  91/1/28 76/1/30 81/1/30
f  78/1/9 79/1/9 80/1/9
f  81/1/6 50/1/6 91/1/6
f  79/1/8 87/1/8 92/1/8
f  92/1/29 87/1/29 80/1/29
f  93/1/20 86/1/26 82/1/26
f  93/1/4 82/1/4 88/1/4
f  73/1/28 89/1/30 88/1/30
f  91/1/6 50/1/6 90/1/6
f  84/1/28 90/1/22 85/1/22
f  90/1/22 84/1/28 91/1/28
f  89/1/6 86/1/6 94/1/6
f  92/1/9 80/1/9 79/1/9
f  86/1/26 93/1/20 94/1/20
f  88/1/30 94/1/20 93/1/20
f  94/1/20 88/1/30 89/1/30

# Mesh 'mesh1_mesh1-geometry' with 166 faces
g mesh1_mesh1-geometry
usemtl material_1_24
f  3/1/22 2/1/22 1/1/28
f  4/1/28 1/1/28 2/1/22
f  3/1/22 5/1/16 2/1/22
f  6/1/6 3/1/6 1/1/6
f  1/1/28 4/1/28 7/1/30
f  4/1/4 2/1/4 8/1/4
f  9/1/16 2/1/22 5/1/16
f  6/1/6 5/1/6 3/1/6
f  6/1/6 1/1/6 7/1/6
f  10/1/30 7/1/30 4/1/28
f  2/1/4 9/1/4 8/1/4
f  10/1/4 4/1/4 8/1/4
f  5/1/16 11/1/11 9/1/16
f  6/1/6 11/1/6 5/1/6
f  6/1/6 7/1/6 12/1/6
f  7/1/30 10/1/30 12/1/20
f  9/1/4 13/1/4 8/1/4
f  14/1/4 10/1/4 8/1/4
f  13/1/11 9/1/16 11/1/11
f  15/1/6 11/1/6 6/1/6
f  6/1/6 12/1/6 16/1/6
f  14/1/20 12/1/20 10/1/30
f  8/1/4 13/1/4 17/1/4
f  18/1/4 14/1/4 8/1/4
f  11/1/11 19/1/13 13/1/11
f  15/1/6 19/1/6 11/1/6
f  15/1/31 6/1/7 17/1/31
f  20/1/6 16/1/6 12/1/6
f  6/1/6 16/1/6 21/1/6
f  12/1/20 14/1/20 20/1/26
f  13/1/4 22/1/4 17/1/4
f  8/1/7 17/1/31 6/1/7
f  14/1/4 18/1/4 23/1/4
f  24/1/4 18/1/4 8/1/4
f  22/1/13 13/1/11 19/1/13
f  15/1/6 25/1/6 19/1/6
f  17/1/31 26/1/9 15/1/31
f  27/1/6 16/1/6 20/1/6
f  21/1/24 16/1/27 24/1/24
f  6/1/6 21/1/6 28/1/6
f  23/1/26 20/1/26 14/1/20
f  22/1/4 29/1/4 17/1/4
f  6/1/7 28/1/3 8/1/7
f  23/1/4 18/1/4 30/1/4
f  18/1/27 24/1/24 16/1/27
f  31/1/4 24/1/4 8/1/4
f  19/1/13 25/1/27 22/1/13
f  15/1/6 32/1/6 25/1/6
f  33/1/9 15/1/31 26/1/9
f  34/1/9 26/1/9 17/1/31
f  35/1/6 16/1/6 27/1/6
f  20/1/26 23/1/26 27/1/25
f  24/1/24 36/1/21 21/1/24
f  28/1/6 21/1/6 37/1/6
f  29/1/4 38/1/4 17/1/4
f  29/1/27 22/1/13 25/1/27
f  31/1/3 8/1/7 28/1/3
f  30/1/4 18/1/4 39/1/4
f  30/1/25 27/1/25 23/1/26
f  16/1/27 40/1/32 18/1/27
f  36/1/4 24/1/4 31/1/4
f  15/1/6 41/1/6 32/1/6
f  25/1/27 32/1/24 29/1/27
f  33/1/6 42/1/6 15/1/6
f  44/1/9 26/1/9 34/1/9
f  45/1/9 34/1/9 17/1/31
f  46/1/6 16/1/6 35/1/6
f  27/1/25 30/1/25 35/1/18
f  37/1/21 21/1/24 36/1/21
f  28/1/6 37/1/6 47/1/6
f  38/1/4 48/1/4 17/1/4
f  38/1/24 29/1/27 32/1/24
f  28/1/3 47/1/2 31/1/3
f  39/1/4 18/1/4 49/1/4
f  39/1/18 35/1/18 30/1/25
f  50/1/32 18/1/27 40/1/32
f  51/1/6 40/1/6 16/1/6
f  52/1/4 36/1/4 31/1/4
f  15/1/6 53/1/6 41/1/6
f  32/1/24 41/1/21 38/1/24
f  33/1/6 54/1/6 42/1/6
f  15/1/6 42/1/6 53/1/6
f  45/1/9 44/1/9 34/1/9
f  17/1/4 58/1/4 45/1/4
f  59/1/6 16/1/6 46/1/6
f  46/1/14 35/1/18 49/1/14
f  37/1/21 36/1/21 60/1/17
f  47/1/6 37/1/6 60/1/6
f  48/1/4 61/1/4 17/1/4
f  48/1/21 38/1/24 41/1/21
f  52/1/2 31/1/3 47/1/2
f  49/1/4 18/1/4 62/1/4
f  39/1/18 49/1/14 35/1/18
f  18/1/4 50/1/4 63/1/4
f  40/1/32 54/1/13 50/1/32
f  64/1/6 40/1/6 51/1/6
f  51/1/6 16/1/6 59/1/6
f  65/1/4 36/1/4 52/1/4
f  53/1/17 61/1/17 41/1/21
f  54/1/6 33/1/6 55/1/6
f  42/1/6 54/1/6 66/1/6
f  42/1/12 58/1/12 53/1/17
f  43/1/13 50/1/32 55/1/13
f  56/1/13 50/1/32 43/1/13
f  44/1/20 67/1/20 56/1/20
f  44/1/9 45/1/9 70/1/9
f  72/1/4 45/1/4 58/1/4
f  61/1/4 58/1/4 17/1/4
f  59/1/15 46/1/14 62/1/15
f  49/1/14 62/1/15 46/1/14
f  65/1/17 60/1/17 36/1/21
f  47/1/6 60/1/6 73/1/6
f  48/1/21 41/1/21 61/1/17
f  52/1/2 47/1/2 74/1/1
f  62/1/4 18/1/4 63/1/4
f  63/1/4 50/1/4 75/1/4
f  55/1/13 50/1/32 54/1/13
f  76/1/6 54/1/6 40/1/6
f  77/1/6 40/1/6 64/1/6
f  64/1/7 51/1/9 75/1/7
f  51/1/9 59/1/15 63/1/9
f  74/1/4 65/1/4 52/1/4
f  61/1/17 53/1/17 58/1/12
f  54/1/6 76/1/6 66/1/6
f  66/1/8 72/1/8 42/1/12
f  58/1/12 42/1/12 72/1/8
f  67/1/13 50/1/32 56/1/13
f  67/1/20 44/1/20 70/1/20
f  45/1/4 50/1/4 70/1/4
f  72/1/4 81/1/4 45/1/4
f  62/1/15 63/1/9 59/1/15
f  60/1/17 65/1/17 82/1/12
f  73/1/6 60/1/6 82/1/6
f  73/1/1 74/1/1 47/1/2
f  75/1/4 50/1/4 83/1/4
f  63/1/9 75/1/7 51/1/9
f  76/1/6 40/1/6 84/1/6
f  85/1/6 40/1/6 77/1/6
f  77/1/3 64/1/7 83/1/3
f  75/1/7 83/1/3 64/1/7
f  86/1/4 65/1/4 74/1/4
f  76/1/5 81/1/5 66/1/8
f  72/1/8 66/1/8 81/1/5
f  67/1/4 70/1/4 50/1/4
f  81/1/4 50/1/4 45/1/4
f  86/1/12 82/1/12 65/1/17
f  73/1/6 82/1/6 88/1/6
f  74/1/1 73/1/1 89/1/5
f  83/1/4 50/1/4 90/1/4
f  84/1/6 40/1/6 85/1/6
f  84/1/1 91/1/1 76/1/5
f  85/1/2 77/1/3 90/1/2
f  83/1/3 90/1/2 77/1/3
f  89/1/4 86/1/4 74/1/4
f  81/1/5 76/1/5 91/1/1
f  91/1/4 50/1/4 81/1/4
f  82/1/12 86/1/12 93/1/8
f  88/1/6 82/1/6 93/1/6
f  88/1/5 89/1/5 73/1/1
f  90/1/4 50/1/4 91/1/4
f  85/1/2 90/1/2 84/1/1
f  91/1/1 84/1/1 90/1/2
f  94/1/4 86/1/4 89/1/4
f  94/1/8 93/1/8 86/1/12
f  93/1/8 94/1/8 88/1/5
f  89/1/5 88/1/5 94/1/8

# Mesh 'mesh1_mesh1-geometry' with 20 faces
g mesh1_mesh1-geometry
usemtl material_2_1_8
f  34/2/33 56/3/33 44/4/33
f  44/4/33 57/5/33 34/2/33
f  56/3/33 68/6/33 44/4/33
f  56/3/33 34/2/33 69/7/33
f  68/6/33 57/5/33 44/4/33
f  71/8/8 34/9/8 57/10/8
f  68/6/33 56/3/33 78/11/33
f  34/9/8 71/8/8 69/12/8
f  78/11/33 56/3/33 69/7/33
f  79/13/33 57/5/33 68/6/33
f  57/5/34 80/14/34 71/15/34
f  78/16/13 79/17/13 68/18/13
f  69/12/8 71/8/8 80/19/8
f  69/12/8 80/19/8 78/20/8
f  57/5/33 79/13/33 87/21/33
f  87/21/34 80/14/34 57/5/34
f  80/22/13 79/17/13 78/16/13
f  92/23/20 87/10/20 79/24/20
f  80/14/34 87/21/34 92/25/34
f  79/17/13 80/22/13 92/26/13

# Mesh 'mesh2_mesh2-geometry' with 2 faces
g mesh2_mesh2-geometry
usemtl material_0_0
l  43 26
l  71 43

# Mesh 'mesh3_mesh3-geometry' with 1 faces
g mesh3_mesh3-geometry
usemtl material_0_0
l  55 33

